<?xml version="1.0" encoding="UTF-8" standalone="no"?>
<!-- Created with Inkscape (http://www.inkscape.org/) -->

<svg
   width="210mm"
   height="297mm"
   viewBox="0 0 210 297"
   version="1.1"
   id="svg1"
   inkscape:version="1.4.2 (f4327f4, 2025-05-13)"
   sodipodi:docname="Logo Aqua.svg"
   xmlns:inkscape="http://www.inkscape.org/namespaces/inkscape"
   xmlns:sodipodi="http://sodipodi.sourceforge.net/DTD/sodipodi-0.dtd"
   xmlns="http://www.w3.org/2000/svg"
   xmlns:svg="http://www.w3.org/2000/svg">
  <sodipodi:namedview
     id="namedview1"
     pagecolor="#ffffff"
     bordercolor="#000000"
     borderopacity="0.25"
     inkscape:showpageshadow="2"
     inkscape:pageopacity="0.0"
     inkscape:pagecheckerboard="0"
     inkscape:deskcolor="#d1d1d1"
     inkscape:document-units="mm"
     inkscape:zoom="0.73512619"
     inkscape:cx="310.15083"
     inkscape:cy="548.88536"
     inkscape:window-width="2560"
     inkscape:window-height="1369"
     inkscape:window-x="-8"
     inkscape:window-y="-8"
     inkscape:window-maximized="1"
     inkscape:current-layer="layer1" />
  <defs
     id="defs1" />
  <g
     inkscape:label="Layer 1"
     inkscape:groupmode="layer"
     id="layer1">
    <path
       id="path35"
       style="display:inline;fill:#00ffff;fill-opacity:1;stroke:none;stroke-width:0.162782;stroke-dasharray:none;stroke-opacity:1"
       d="m 132.80072,25.356855 a 38.446936,38.446936 0 0 0 -52.519267,14.07202 38.446936,38.446936 0 0 0 6.68184,46.969967 L 58.603874,135.51884 a 38.446936,38.446936 0 0 0 -43.764877,17.77092 38.446936,38.446936 0 0 0 14.072587,52.51954 38.446936,38.446936 0 0 0 46.745983,-6.45012 l 49.238853,28.4281 a 38.446936,38.446936 0 0 0 17.74495,43.85586 38.446936,38.446936 0 0 0 52.51964,-14.07264 38.446936,38.446936 0 0 0 -14.07261,-52.51954 38.446936,38.446936 0 0 0 -19.44751,-5.15048 L 132.81248,91.941712 A 38.446936,38.446936 0 0 0 146.87364,77.875913 38.446936,38.446936 0 0 0 132.80072,25.356855 Z m -9.22268,16.995122 a 19.182951,19.182951 0 0 1 7.02194,26.204528 19.182951,19.182951 0 0 1 -26.20466,7.020994 19.182951,19.182951 0 0 1 -7.021362,-26.204132 19.182951,19.182951 0 0 1 26.204082,-7.02139 z m -9.32515,54.741399 28.76994,107.740544 a 38.446936,38.446936 0 0 0 -8.48127,6.46496 L 85.18022,182.80016 A 38.446936,38.446936 0 0 0 75.115606,145.12344 L 103.60249,95.782574 a 38.446936,38.446936 0 0 0 10.6504,1.310802 z M 57.726812,155.89992 a 19.182951,19.182951 0 0 1 7.021599,26.20504 19.182951,19.182951 0 0 1 -26.204667,7.021 19.182951,19.182951 0 0 1 -7.021364,-26.20412 19.182951,19.182951 0 0 1 26.204432,-7.02192 z m 113.828368,65.71874 a 19.182951,19.182951 0 0 1 7.0216,26.20506 19.182951,19.182951 0 0 1 -26.20468,7.02099 19.182951,19.182951 0 0 1 -7.02137,-26.20399 19.182951,19.182951 0 0 1 26.20445,-7.02206 z" />
  </g>
</svg>
