<svg version="1.1" id="Layer_1" xmlns="http://www.w3.org/2000/svg" xmlns:xlink="http://www.w3.org/1999/xlink" x="0px" y="0px"
	 width="100%" viewBox="0 0 464 464" enable-background="new 0 0 464 464" xml:space="preserve">
<path fill="#444444" opacity="1.000000" stroke="none" 
	d="
M314.000000,465.000000 
	C209.333328,465.000000 105.166664,465.000000 1.000000,465.000000 
	C1.000000,310.333344 1.000000,155.666672 1.000000,1.000000 
	C155.666672,1.000000 310.333344,1.000000 465.000000,1.000000 
	C465.000000,155.666672 465.000000,310.333344 465.000000,465.000000 
	C414.833344,465.000000 364.666656,465.000000 314.000000,465.000000 
M379.771881,341.731842 
	C368.835205,324.886169 353.288086,316.321014 333.241333,316.462372 
	C329.138580,316.491272 327.513641,315.311066 326.211914,311.532745 
	C308.254486,259.409729 290.155334,207.335419 271.978241,155.288498 
	C270.952911,152.352615 271.290863,150.544388 273.548584,148.357742 
	C285.781982,136.509613 290.942780,121.843658 290.158264,104.973015 
	C288.978149,79.594360 272.006042,58.737537 247.547623,52.547798 
	C224.115036,46.617672 198.241531,57.611511 185.641876,78.851990 
	C172.746338,100.591225 175.346802,129.446274 191.957977,147.180664 
	C193.845490,149.195801 194.239868,150.649567 193.025726,153.221741 
	C181.079208,178.530487 169.228027,203.884766 157.503479,229.297043 
	C156.054108,232.438477 154.714600,233.271301 151.138535,232.334808 
	C124.569824,225.377151 98.185616,238.388351 87.428238,263.466187 
	C76.843216,288.142212 84.004082,317.597839 104.213310,332.510223 
	C125.966423,348.561768 153.493942,347.236115 174.993622,328.865021 
	C177.355286,326.847015 178.986771,327.485199 181.196182,328.449524 
	C211.277618,341.579102 241.346313,354.739044 271.507874,367.682465 
	C275.530670,369.408813 277.162628,371.337921 277.257904,376.024506 
	C277.955597,410.344696 310.036194,435.462646 343.621399,428.317169 
	C381.822632,420.189545 399.876251,377.691162 379.771881,341.731842 
z"/>
<path fill="#26D7EC" opacity="1.000000" stroke="none" 
	d="
M379.953369,342.047974 
	C399.876251,377.691162 381.822632,420.189545 343.621399,428.317169 
	C310.036194,435.462646 277.955597,410.344696 277.257904,376.024506 
	C277.162628,371.337921 275.530670,369.408813 271.507874,367.682465 
	C241.346313,354.739044 211.277618,341.579102 181.196182,328.449524 
	C178.986771,327.485199 177.355286,326.847015 174.993622,328.865021 
	C153.493942,347.236115 125.966423,348.561768 104.213310,332.510223 
	C84.004082,317.597839 76.843216,288.142212 87.428238,263.466187 
	C98.185616,238.388351 124.569824,225.377151 151.138535,232.334808 
	C154.714600,233.271301 156.054108,232.438477 157.503479,229.297043 
	C169.228027,203.884766 181.079208,178.530487 193.025726,153.221741 
	C194.239868,150.649567 193.845490,149.195801 191.957977,147.180664 
	C175.346802,129.446274 172.746338,100.591225 185.641876,78.851990 
	C198.241531,57.611511 224.115036,46.617672 247.547623,52.547798 
	C272.006042,58.737537 288.978149,79.594360 290.158264,104.973015 
	C290.942780,121.843658 285.781982,136.509613 273.548584,148.357742 
	C271.290863,150.544388 270.952911,152.352615 271.978241,155.288498 
	C290.155334,207.335419 308.254486,259.409729 326.211914,311.532745 
	C327.513641,315.311066 329.138580,316.491272 333.241333,316.462372 
	C353.288086,316.321014 368.835205,324.886169 379.953369,342.047974 
M266.871429,216.689575 
	C260.604828,199.022217 254.338196,181.354843 248.000977,163.488434 
	C237.327744,166.092392 227.325363,166.098831 217.311371,163.151855 
	C216.350372,162.869064 214.028641,164.785233 213.397873,166.164886 
	C201.834778,191.456924 190.461609,216.835739 178.954575,242.153610 
	C177.806381,244.679901 177.600388,246.417511 179.671371,248.785156 
	C193.257721,264.317505 196.876862,282.205383 191.219543,301.913300 
	C190.172195,305.561859 191.296631,306.833618 194.430328,308.187286 
	C218.739059,318.688049 242.976562,329.353638 267.239044,339.961487 
	C272.529388,342.274536 277.831573,344.560425 283.327881,346.945404 
	C288.165497,337.677368 294.421204,330.281372 302.793060,324.662506 
	C303.707458,324.048828 303.804321,321.118591 303.276398,319.615509 
	C291.303528,285.527588 279.190521,251.488876 266.871429,216.689575 
M242.901443,140.723282 
	C256.934601,135.669495 265.595886,124.282730 266.164734,110.139648 
	C266.731934,96.037392 259.397705,83.641754 247.268890,78.203712 
	C234.272125,72.376518 219.064117,75.512039 209.787308,85.931480 
	C200.076447,96.838440 198.528427,113.515175 206.024796,126.464706 
	C213.301468,139.034729 226.710754,144.419083 242.901443,140.723282 
M160.623550,310.117340 
	C172.771881,296.522461 173.137863,276.825623 161.475113,264.286652 
	C149.540497,251.455383 129.385971,250.567978 116.520264,262.307312 
	C103.448326,274.234863 102.529617,295.863312 114.527458,309.221497 
	C126.449936,322.495789 146.207565,323.104065 160.623550,310.117340 
M352.414703,347.038177 
	C339.131470,337.453278 323.348511,337.742615 311.944366,347.780090 
	C300.399017,357.941864 297.516754,375.572815 305.144318,389.376221 
	C312.138153,402.032776 327.570526,408.369751 341.646637,404.050415 
	C353.313446,400.470398 360.594147,392.340912 363.274506,380.599487 
	C366.204834,367.762939 362.829834,356.524780 352.414703,347.038177 
z"/>
<path fill="#414242" opacity="1.000000" stroke="none" 
	d="
M266.987610,217.065262 
	C279.190521,251.488876 291.303528,285.527588 303.276398,319.615509 
	C303.804321,321.118591 303.707458,324.048828 302.793060,324.662506 
	C294.421204,330.281372 288.165497,337.677368 283.327881,346.945404 
	C277.831573,344.560425 272.529388,342.274536 267.239044,339.961487 
	C242.976562,329.353638 218.739059,318.688049 194.430328,308.187286 
	C191.296631,306.833618 190.172195,305.561859 191.219543,301.913300 
	C196.876862,282.205383 193.257721,264.317505 179.671371,248.785156 
	C177.600388,246.417511 177.806381,244.679901 178.954575,242.153610 
	C190.461609,216.835739 201.834778,191.456924 213.397873,166.164886 
	C214.028641,164.785233 216.350372,162.869064 217.311371,163.151855 
	C227.325363,166.098831 237.327744,166.092392 248.000977,163.488434 
	C254.338196,181.354843 260.604828,199.022217 266.987610,217.065262 
z"/>
<path fill="#404241" opacity="1.000000" stroke="none" 
	d="
M242.507721,140.839584 
	C226.710754,144.419083 213.301468,139.034729 206.024796,126.464706 
	C198.528427,113.515175 200.076447,96.838440 209.787308,85.931480 
	C219.064117,75.512039 234.272125,72.376518 247.268890,78.203712 
	C259.397705,83.641754 266.731934,96.037392 266.164734,110.139648 
	C265.595886,124.282730 256.934601,135.669495 242.507721,140.839584 
z"/>
<path fill="#404242" opacity="1.000000" stroke="none" 
	d="
M160.369781,310.371216 
	C146.207565,323.104065 126.449936,322.495789 114.527458,309.221497 
	C102.529617,295.863312 103.448326,274.234863 116.520264,262.307312 
	C129.385971,250.567978 149.540497,251.455383 161.475113,264.286652 
	C173.137863,276.825623 172.771881,296.522461 160.369781,310.371216 
z"/>
<path fill="#404141" opacity="1.000000" stroke="none" 
	d="
M352.695007,347.260559 
	C362.829834,356.524780 366.204834,367.762939 363.274506,380.599487 
	C360.594147,392.340912 353.313446,400.470398 341.646637,404.050415 
	C327.570526,408.369751 312.138153,402.032776 305.144318,389.376221 
	C297.516754,375.572815 300.399017,357.941864 311.944366,347.780090 
	C323.348511,337.742615 339.131470,337.453278 352.695007,347.260559 
z"/>
</svg>