<svg version="1.1" id="Layer_1" xmlns="http://www.w3.org/2000/svg" xmlns:xlink="http://www.w3.org/1999/xlink" x="0px" y="0px"
	 width="100%" viewBox="0 0 464 464" enable-background="new 0 0 464 464" xml:space="preserve">
<path fill="#000000" opacity="1.000000" stroke="none" 
	d="
M312.000000,465.000000 
	C208.000000,465.000000 104.500000,465.000000 1.000000,465.000000 
	C1.000000,310.333344 1.000000,155.666672 1.000000,1.000000 
	C155.666672,1.000000 310.333344,1.000000 465.000000,1.000000 
	C465.000000,155.666672 465.000000,310.333344 465.000000,465.000000 
	C414.166656,465.000000 363.333344,465.000000 312.000000,465.000000 
M284.282318,402.361328 
	C295.512360,420.622345 312.016144,429.990570 333.282562,429.906799 
	C364.309448,429.784607 388.690918,403.859100 388.461578,372.054993 
	C388.220062,338.560547 362.613037,314.885956 332.704071,316.262665 
	C329.197662,316.424072 327.795135,315.278015 326.721375,312.042847 
	C322.160919,298.302399 317.306732,284.659454 312.557556,270.981628 
	C299.353485,232.953232 286.200775,194.906723 272.857330,156.927292 
	C271.606628,153.367432 271.001282,150.842392 274.225525,147.888947 
	C284.849854,138.156906 289.733063,125.593407 290.486359,111.470055 
	C292.532440,73.108955 259.539093,43.148335 221.060104,52.478813 
	C178.542206,62.788670 162.483902,116.011124 192.006409,147.680206 
	C193.931686,149.745468 193.638168,151.150574 192.615707,153.325317 
	C181.788895,176.353790 171.061783,199.429123 160.283539,222.480484 
	C158.631180,226.014359 156.858963,229.492172 155.158203,232.963211 
	C144.738586,229.738449 134.886795,228.941422 124.929680,231.373688 
	C89.207649,240.099655 73.171333,278.360718 87.214203,311.377472 
	C101.863266,345.819489 145.430359,354.799896 174.314789,330.030457 
	C176.379211,328.260101 177.897552,327.394592 180.803345,328.671692 
	C211.437607,342.135437 242.145462,355.432281 272.870850,368.687439 
	C275.641541,369.882751 276.841278,371.300781 276.844879,374.564331 
	C276.855408,384.168945 278.905365,393.369049 284.282318,402.361328 
z"/>
<path fill="#27D5E9" opacity="1.000000" stroke="none" 
	d="
M284.087341,402.052612 
	C278.905365,393.369049 276.855408,384.168945 276.844879,374.564331 
	C276.841278,371.300781 275.641541,369.882751 272.870850,368.687439 
	C242.145462,355.432281 211.437607,342.135437 180.803345,328.671692 
	C177.897552,327.394592 176.379211,328.260101 174.314789,330.030457 
	C145.430359,354.799896 101.863266,345.819489 87.214203,311.377472 
	C73.171333,278.360718 89.207649,240.099655 124.929680,231.373688 
	C134.886795,228.941422 144.738586,229.738449 155.158203,232.963211 
	C156.858963,229.492172 158.631180,226.014359 160.283539,222.480484 
	C171.061783,199.429123 181.788895,176.353790 192.615707,153.325317 
	C193.638168,151.150574 193.931686,149.745468 192.006409,147.680206 
	C162.483902,116.011124 178.542206,62.788670 221.060104,52.478813 
	C259.539093,43.148335 292.532440,73.108955 290.486359,111.470055 
	C289.733063,125.593407 284.849854,138.156906 274.225525,147.888947 
	C271.001282,150.842392 271.606628,153.367432 272.857330,156.927292 
	C286.200775,194.906723 299.353485,232.953232 312.557556,270.981628 
	C317.306732,284.659454 322.160919,298.302399 326.721375,312.042847 
	C327.795135,315.278015 329.197662,316.424072 332.704071,316.262665 
	C362.613037,314.885956 388.220062,338.560547 388.461578,372.054993 
	C388.690918,403.859100 364.309448,429.784607 333.282562,429.906799 
	C312.016144,429.990570 295.512360,420.622345 284.087341,402.052612 
M270.133636,226.455307 
	C263.211426,206.870865 256.336731,187.269196 249.267242,167.738068 
	C248.758469,166.332474 246.550705,164.268066 245.599960,164.492111 
	C235.415070,166.892151 225.454102,166.175476 215.517502,162.808578 
	C214.900192,163.747330 214.352936,164.378036 214.025040,165.107376 
	C202.360748,191.051086 190.673004,216.984604 179.185715,243.006592 
	C178.534454,244.481873 178.863464,247.297394 179.894836,248.470703 
	C193.624023,264.089508 196.810135,281.985046 191.548355,301.635376 
	C190.578827,305.256165 191.539261,306.575897 194.701218,307.939758 
	C217.788361,317.897827 240.805450,328.018341 263.840942,338.096069 
	C270.201538,340.878723 276.549561,343.690125 283.090424,346.570709 
	C288.066925,337.370514 294.263733,329.943756 302.659576,324.423676 
	C303.477417,323.885956 303.782715,321.497131 303.363678,320.306122 
	C292.435638,289.246307 281.380157,258.231323 270.133636,226.455307 
M206.130966,126.214264 
	C219.942093,147.503357 248.937332,147.050507 261.617767,125.347641 
	C269.880280,111.206192 266.572662,93.130577 253.790695,82.573830 
	C241.894485,72.748650 224.118683,73.326332 212.150284,83.927116 
	C200.981659,93.819496 198.418137,110.545601 206.130966,126.214264 
M145.036453,255.247620 
	C130.037415,252.194305 116.070122,258.794678 109.570160,272.007477 
	C103.159401,285.038971 106.609802,302.423340 117.445717,311.687286 
	C128.479828,321.120697 144.563980,322.055359 156.190674,313.490936 
	C167.087570,305.464111 171.354218,294.292786 169.232101,281.080841 
	C167.073639,267.642639 158.937378,259.141144 145.036453,255.247620 
M346.950531,401.620300 
	C357.372040,395.866516 363.136505,386.890411 363.973572,375.188293 
	C364.792267,363.742249 360.846313,353.783112 351.528076,346.774445 
	C341.896210,339.529816 331.001862,338.181824 319.955933,343.027283 
	C303.949738,350.048615 296.630737,369.545776 303.564484,385.415619 
	C311.104553,402.673187 328.575287,409.433289 346.950531,401.620300 
z"/>
<path fill="#010202" opacity="1.000000" stroke="none" 
	d="
M270.240112,226.831970 
	C281.380157,258.231323 292.435638,289.246307 303.363678,320.306122 
	C303.782715,321.497131 303.477417,323.885956 302.659576,324.423676 
	C294.263733,329.943756 288.066925,337.370514 283.090424,346.570709 
	C276.549561,343.690125 270.201538,340.878723 263.840942,338.096069 
	C240.805450,328.018341 217.788361,317.897827 194.701218,307.939758 
	C191.539261,306.575897 190.578827,305.256165 191.548355,301.635376 
	C196.810135,281.985046 193.624023,264.089508 179.894836,248.470703 
	C178.863464,247.297394 178.534454,244.481873 179.185715,243.006592 
	C190.673004,216.984604 202.360748,191.051086 214.025040,165.107376 
	C214.352936,164.378036 214.900192,163.747330 215.517502,162.808578 
	C225.454102,166.175476 235.415070,166.892151 245.599960,164.492111 
	C246.550705,164.268066 248.758469,166.332474 249.267242,167.738068 
	C256.336731,187.269196 263.211426,206.870865 270.240112,226.831970 
z"/>
<path fill="#020202" opacity="1.000000" stroke="none" 
	d="
M205.949707,125.890305 
	C198.418137,110.545601 200.981659,93.819496 212.150284,83.927116 
	C224.118683,73.326332 241.894485,72.748650 253.790695,82.573830 
	C266.572662,93.130577 269.880280,111.206192 261.617767,125.347641 
	C248.937332,147.050507 219.942093,147.503357 205.949707,125.890305 
z"/>
<path fill="#020303" opacity="1.000000" stroke="none" 
	d="
M145.437683,255.332306 
	C158.937378,259.141144 167.073639,267.642639 169.232101,281.080841 
	C171.354218,294.292786 167.087570,305.464111 156.190674,313.490936 
	C144.563980,322.055359 128.479828,321.120697 117.445717,311.687286 
	C106.609802,302.423340 103.159401,285.038971 109.570160,272.007477 
	C116.070122,258.794678 130.037415,252.194305 145.437683,255.332306 
z"/>
<path fill="#020303" opacity="1.000000" stroke="none" 
	d="
M346.609924,401.780029 
	C328.575287,409.433289 311.104553,402.673187 303.564484,385.415619 
	C296.630737,369.545776 303.949738,350.048615 319.955933,343.027283 
	C331.001862,338.181824 341.896210,339.529816 351.528076,346.774445 
	C360.846313,353.783112 364.792267,363.742249 363.973572,375.188293 
	C363.136505,386.890411 357.372040,395.866516 346.609924,401.780029 
z"/>
</svg>