<svg version="1.1" id="Layer_1" xmlns="http://www.w3.org/2000/svg" xmlns:xlink="http://www.w3.org/1999/xlink" x="0px" y="0px"
	 width="100%" viewBox="0 0 953 953" enable-background="new 0 0 953 953" xml:space="preserve">
<path fill="#000000" opacity="1.000000" stroke="none" 
	d="
M541.000000,954.000000 
	C360.666656,954.000000 180.833328,954.000000 1.000000,954.000000 
	C1.000000,636.333313 1.000000,318.666656 1.000000,1.000000 
	C318.666656,1.000000 636.333313,1.000000 954.000000,1.000000 
	C954.000000,318.666656 954.000000,636.333313 954.000000,954.000000 
	C816.500000,954.000000 679.000000,954.000000 541.000000,954.000000 
M387.043488,645.751892 
	C397.679840,628.793213 399.391022,610.764282 392.483734,592.187561 
	C384.409607,570.472717 364.743439,557.625000 340.765594,557.566650 
	C338.196075,557.560425 336.031036,558.086670 334.711243,554.326172 
	C316.927643,503.654449 298.945862,453.051758 280.786102,402.513550 
	C278.951996,397.409271 278.563477,393.636871 283.446350,390.173218 
	C285.539124,388.688721 287.030304,386.249451 288.541718,384.068573 
	C302.260559,364.273224 301.192444,337.013824 285.969788,316.849731 
	C271.913452,298.230560 245.492859,290.613220 222.550888,298.565399 
	C184.125259,311.884521 171.313660,360.853973 198.479324,391.025665 
	C200.560089,393.336639 200.048630,394.874207 198.980896,397.108887 
	C189.226181,417.524597 179.531937,437.969208 169.838379,458.414093 
	C167.084686,464.221924 164.391174,470.058319 161.592300,476.048065 
	C149.843948,471.795990 138.394241,471.037567 126.808075,474.157257 
	C104.191071,480.247040 88.954140,498.685242 86.165764,523.246521 
	C83.563477,546.168640 95.345650,568.652588 115.429863,579.091248 
	C136.141586,589.856079 160.821945,586.958679 178.375992,571.585999 
	C180.252106,569.943054 181.601685,568.934631 184.372238,570.127197 
	C216.310593,583.874268 248.303787,597.494812 280.342987,611.005371 
	C283.060059,612.151123 283.812866,613.681091 284.164276,616.419556 
	C284.943268,622.489746 285.342560,628.834167 287.482971,634.463623 
	C295.152344,654.634888 309.998413,666.925171 331.341431,670.066467 
	C354.321228,673.448608 372.694275,664.745361 387.043488,645.751892 
M545.580566,585.072693 
	C563.177185,590.471497 580.967957,582.231079 587.610352,562.642334 
	C601.491089,521.707703 616.618958,481.196014 631.228638,440.508453 
	C633.209595,434.991425 635.156128,429.462006 637.388916,423.177429 
	C628.619629,423.177429 620.815063,423.368896 613.027039,423.092987 
	C609.382935,422.963867 607.850342,424.286865 606.784302,427.690918 
	C602.362183,441.811371 597.651367,455.841492 593.035095,469.901031 
	C589.977783,479.212708 586.996277,488.551361 583.756165,497.799194 
	C583.071228,499.753967 581.407776,501.365906 580.195190,503.135803 
	C578.844727,501.482544 577.410156,499.888672 576.181763,498.149200 
	C575.629211,497.366699 575.476746,496.297302 575.162476,495.351562 
	C567.617188,472.645905 560.103394,449.929718 552.466125,427.255066 
	C551.965515,425.768829 550.561829,423.490784 549.515930,423.456055 
	C540.436096,423.154541 531.342102,423.282227 521.665527,423.282227 
	C522.490417,425.752441 522.972656,427.302612 523.522705,428.828339 
	C536.948792,466.067413 550.371765,503.307587 563.824890,540.536865 
	C565.862366,546.175232 566.460693,551.691162 562.001343,556.430054 
	C557.654724,561.049194 552.068604,561.292297 546.251526,560.086365 
	C544.489685,559.721191 542.724304,559.373657 540.720215,558.969543 
	C539.397278,561.963379 538.150574,564.653931 537.009827,567.388672 
	C531.701660,580.114990 531.712097,580.119324 545.580566,585.072693 
M676.535645,429.714172 
	C675.650696,427.603516 674.875549,423.724915 673.863281,423.662018 
	C665.791138,423.160522 657.674011,423.382233 649.272339,423.382233 
	C649.272339,431.619263 649.296387,439.242828 649.268311,446.866241 
	C649.149414,479.166473 648.983459,511.466644 648.992981,543.766785 
	C648.993408,545.162109 650.511292,547.733887 651.399170,547.768188 
	C659.487549,548.081055 667.592957,547.951904 675.668396,547.951904 
	C675.901672,546.385254 676.176392,545.406616 676.173950,544.428650 
	C676.120544,523.114807 675.974426,501.800903 676.013794,480.487335 
	C676.021118,476.546478 676.465881,472.552429 677.201172,468.676331 
	C680.246094,452.626434 691.853394,444.519135 707.981934,446.967621 
	C717.924255,448.476990 723.800476,455.387512 723.823547,465.565247 
	C723.877075,489.217316 723.941895,512.869385 723.999023,536.521423 
	C724.007812,540.150146 724.000244,543.778870 724.000244,547.709961 
	C733.161194,547.709961 741.894287,547.709961 750.647278,547.709961 
	C750.872375,547.063049 751.167480,546.611389 751.166931,546.160095 
	C751.131836,517.012390 751.320312,487.860870 750.875427,458.719055 
	C750.728516,449.096222 747.437500,440.103333 740.481934,432.920624 
	C726.632080,418.618378 700.307312,416.746124 683.994507,428.827057 
	C681.997070,430.306305 680.156189,433.039368 676.535645,429.714172 
M476.160980,524.923279 
	C472.555603,525.466003 468.955963,526.423645 465.343781,526.473633 
	C454.451843,526.624329 449.370514,522.701172 445.927826,512.303040 
	C445.589111,511.280060 444.423218,509.798798 443.610321,509.778717 
	C435.855072,509.586639 428.093109,509.664001 420.012207,509.664001 
	C420.437683,524.007874 424.632507,535.346191 436.497681,542.878723 
	C453.821136,553.876587 481.519653,553.014893 498.086945,540.953308 
	C519.040283,525.698608 519.015076,490.487976 495.915161,479.789612 
	C489.678131,476.901031 482.739380,475.355988 475.981934,473.809387 
	C468.725739,472.148590 461.256775,471.433136 453.970123,469.884277 
	C448.826050,468.790863 446.829681,464.985443 446.871094,459.843933 
	C446.918152,454.003174 449.783752,450.089264 454.816345,447.593597 
	C468.947968,440.585724 484.111847,447.061249 488.470703,462.012573 
	C496.877716,462.012573 505.313141,462.012573 514.177368,462.012573 
	C513.702209,447.345551 507.819214,435.917694 495.469421,428.571564 
	C480.202972,419.490479 463.699005,419.171722 447.219360,424.488953 
	C428.984222,430.372650 419.201355,446.834717 420.898041,467.195435 
	C422.209381,482.932098 432.148132,492.063843 452.026398,495.478180 
	C460.372955,496.911804 468.909271,497.419067 477.137360,499.312195 
	C485.064606,501.136108 488.649597,508.129150 486.441040,515.429810 
	C484.966675,520.303528 481.354095,523.058899 476.160980,524.923279 
M796.096802,537.328918 
	C814.703796,551.343201 834.745911,554.676270 856.113525,544.571228 
	C870.962402,537.549011 879.917847,525.593323 883.644470,508.915375 
	C874.811218,508.915375 866.678833,508.828552 858.552673,509.013824 
	C857.401489,509.040070 855.829773,510.124634 855.212952,511.168549 
	C845.056519,528.358337 822.014221,529.833557 809.665344,514.005188 
	C798.381958,499.542572 797.953979,472.334656 808.776611,457.511627 
	C820.818909,441.018097 845.456482,442.433868 856.109741,460.185547 
	C856.625427,461.044647 857.756531,462.086243 858.617126,462.100922 
	C867.018921,462.244507 875.424133,462.187378 885.558960,462.187378 
	C882.258789,454.837555 880.298584,448.401733 876.777649,442.979340 
	C858.993591,415.591400 814.471008,412.931122 791.526001,437.593353 
	C767.084900,463.863617 767.519958,513.218018 796.096802,537.328918 
z"/>
<path fill="#24D5EC" opacity="1.000000" stroke="none" 
	d="
M386.824463,646.039917 
	C372.694275,664.745361 354.321228,673.448608 331.341431,670.066467 
	C309.998413,666.925171 295.152344,654.634888 287.482971,634.463623 
	C285.342560,628.834167 284.943268,622.489746 284.164276,616.419556 
	C283.812866,613.681091 283.060059,612.151123 280.342987,611.005371 
	C248.303787,597.494812 216.310593,583.874268 184.372238,570.127197 
	C181.601685,568.934631 180.252106,569.943054 178.375992,571.585999 
	C160.821945,586.958679 136.141586,589.856079 115.429863,579.091248 
	C95.345650,568.652588 83.563477,546.168640 86.165764,523.246521 
	C88.954140,498.685242 104.191071,480.247040 126.808075,474.157257 
	C138.394241,471.037567 149.843948,471.795990 161.592300,476.048065 
	C164.391174,470.058319 167.084686,464.221924 169.838379,458.414093 
	C179.531937,437.969208 189.226181,417.524597 198.980896,397.108887 
	C200.048630,394.874207 200.560089,393.336639 198.479324,391.025665 
	C171.313660,360.853973 184.125259,311.884521 222.550888,298.565399 
	C245.492859,290.613220 271.913452,298.230560 285.969788,316.849731 
	C301.192444,337.013824 302.260559,364.273224 288.541718,384.068573 
	C287.030304,386.249451 285.539124,388.688721 283.446350,390.173218 
	C278.563477,393.636871 278.951996,397.409271 280.786102,402.513550 
	C298.945862,453.051758 316.927643,503.654449 334.711243,554.326172 
	C336.031036,558.086670 338.196075,557.560425 340.765594,557.566650 
	C364.743439,557.625000 384.409607,570.472717 392.483734,592.187561 
	C399.391022,610.764282 397.679840,628.793213 386.824463,646.039917 
M251.678558,571.821594 
	C264.454803,577.307983 277.231079,582.794434 288.383087,587.583313 
	C296.572266,579.022400 303.836151,571.428772 311.521881,563.394165 
	C293.103882,512.223022 274.309357,460.005707 255.447174,407.600372 
	C243.975830,411.192688 232.864853,410.055420 222.118240,406.774200 
	C209.562637,433.675232 197.193695,460.037872 185.064789,486.510437 
	C184.344360,488.082855 184.872482,491.049255 185.967606,492.501129 
	C194.546097,503.874573 198.712082,516.619934 197.990952,530.769531 
	C197.706955,536.342163 196.224854,541.853699 195.222763,547.780945 
	C213.662201,555.648804 232.311234,563.606140 251.678558,571.821594 
M236.922607,385.798035 
	C259.783844,386.674194 275.321442,370.523468 272.926727,348.373108 
	C271.580383,335.919403 261.847778,324.356415 250.175415,321.342987 
	C236.156937,317.723907 223.270935,322.272400 215.230316,333.237427 
	C203.081924,349.804199 208.067764,380.275299 236.922607,385.798035 
M311.147186,601.825806 
	C310.442230,606.552551 309.068878,611.291626 309.156342,616.003662 
	C309.430084,630.752563 320.130280,643.206909 334.045074,645.721680 
	C348.349731,648.306885 362.713501,640.815063 368.544403,627.727661 
	C374.830933,613.617493 371.115540,597.020935 359.748627,588.436890 
	C342.767212,575.612915 321.086304,581.292664 311.147186,601.825806 
M119.239189,551.255249 
	C120.221077,552.151733 121.153725,553.110229 122.192459,553.935059 
	C133.072922,562.575195 148.112427,563.088257 159.392349,555.229004 
	C170.947769,547.177795 175.810349,531.965515 171.307571,517.953003 
	C167.128174,504.946777 155.182785,496.475677 141.319733,496.831177 
	C128.702530,497.154694 118.955322,502.794678 113.903030,514.320068 
	C108.305115,527.090027 109.278664,539.640869 119.239189,551.255249 
z"/>
<path fill="#23D3EB" opacity="1.000000" stroke="none" 
	d="
M545.247559,584.987061 
	C531.712097,580.119324 531.701660,580.114990 537.009827,567.388672 
	C538.150574,564.653931 539.397278,561.963379 540.720215,558.969543 
	C542.724304,559.373657 544.489685,559.721191 546.251526,560.086365 
	C552.068604,561.292297 557.654724,561.049194 562.001343,556.430054 
	C566.460693,551.691162 565.862366,546.175232 563.824890,540.536865 
	C550.371765,503.307587 536.948792,466.067413 523.522705,428.828339 
	C522.972656,427.302612 522.490417,425.752441 521.665527,423.282227 
	C531.342102,423.282227 540.436096,423.154541 549.515930,423.456055 
	C550.561829,423.490784 551.965515,425.768829 552.466125,427.255066 
	C560.103394,449.929718 567.617188,472.645905 575.162476,495.351562 
	C575.476746,496.297302 575.629211,497.366699 576.181763,498.149200 
	C577.410156,499.888672 578.844727,501.482544 580.195190,503.135803 
	C581.407776,501.365906 583.071228,499.753967 583.756165,497.799194 
	C586.996277,488.551361 589.977783,479.212708 593.035095,469.901031 
	C597.651367,455.841492 602.362183,441.811371 606.784302,427.690918 
	C607.850342,424.286865 609.382935,422.963867 613.027039,423.092987 
	C620.815063,423.368896 628.619629,423.177429 637.388916,423.177429 
	C635.156128,429.462006 633.209595,434.991425 631.228638,440.508453 
	C616.618958,481.196014 601.491089,521.707703 587.610352,562.642334 
	C580.967957,582.231079 563.177185,590.471497 545.247559,584.987061 
M579.336548,506.996094 
	C580.060974,505.631897 580.785461,504.267731 581.509888,502.903534 
	C580.779602,502.662750 580.049255,502.421936 579.318970,502.181152 
	C579.140930,503.486694 578.962891,504.792267 579.336548,506.996094 
z"/>
<path fill="#24D2E9" opacity="1.000000" stroke="none" 
	d="
M676.822754,430.118896 
	C680.156189,433.039368 681.997070,430.306305 683.994507,428.827057 
	C700.307312,416.746124 726.632080,418.618378 740.481934,432.920624 
	C747.437500,440.103333 750.728516,449.096222 750.875427,458.719055 
	C751.320312,487.860870 751.131836,517.012390 751.166931,546.160095 
	C751.167480,546.611389 750.872375,547.063049 750.647278,547.709961 
	C741.894287,547.709961 733.161194,547.709961 724.000244,547.709961 
	C724.000244,543.778870 724.007812,540.150146 723.999023,536.521423 
	C723.941895,512.869385 723.877075,489.217316 723.823547,465.565247 
	C723.800476,455.387512 717.924255,448.476990 707.981934,446.967621 
	C691.853394,444.519135 680.246094,452.626434 677.201172,468.676331 
	C676.465881,472.552429 676.021118,476.546478 676.013794,480.487335 
	C675.974426,501.800903 676.120544,523.114807 676.173950,544.428650 
	C676.176392,545.406616 675.901672,546.385254 675.668396,547.951904 
	C667.592957,547.951904 659.487549,548.081055 651.399170,547.768188 
	C650.511292,547.733887 648.993408,545.162109 648.992981,543.766785 
	C648.983459,511.466644 649.149414,479.166473 649.268311,446.866241 
	C649.296387,439.242828 649.272339,431.619263 649.272339,423.382233 
	C657.674011,423.382233 665.791138,423.160522 673.863281,423.662018 
	C674.875549,423.724915 675.650696,427.603516 676.822754,430.118896 
z"/>
<path fill="#22D4EB" opacity="1.000000" stroke="none" 
	d="
M476.468323,524.845886 
	C481.354095,523.058899 484.966675,520.303528 486.441040,515.429810 
	C488.649597,508.129150 485.064606,501.136108 477.137360,499.312195 
	C468.909271,497.419067 460.372955,496.911804 452.026398,495.478180 
	C432.148132,492.063843 422.209381,482.932098 420.898041,467.195435 
	C419.201355,446.834717 428.984222,430.372650 447.219360,424.488953 
	C463.699005,419.171722 480.202972,419.490479 495.469421,428.571564 
	C507.819214,435.917694 513.702209,447.345551 514.177368,462.012573 
	C505.313141,462.012573 496.877716,462.012573 488.470703,462.012573 
	C484.111847,447.061249 468.947968,440.585724 454.816345,447.593597 
	C449.783752,450.089264 446.918152,454.003174 446.871094,459.843933 
	C446.829681,464.985443 448.826050,468.790863 453.970123,469.884277 
	C461.256775,471.433136 468.725739,472.148590 475.981934,473.809387 
	C482.739380,475.355988 489.678131,476.901031 495.915161,479.789612 
	C519.015076,490.487976 519.040283,525.698608 498.086945,540.953308 
	C481.519653,553.014893 453.821136,553.876587 436.497681,542.878723 
	C424.632507,535.346191 420.437683,524.007874 420.012207,509.664001 
	C428.093109,509.664001 435.855072,509.586639 443.610321,509.778717 
	C444.423218,509.798798 445.589111,511.280060 445.927826,512.303040 
	C449.370514,522.701172 454.451843,526.624329 465.343781,526.473633 
	C468.955963,526.423645 472.555603,525.466003 476.468323,524.845886 
z"/>
<path fill="#24D3EA" opacity="1.000000" stroke="none" 
	d="
M795.822876,537.098694 
	C767.519958,513.218018 767.084900,463.863617 791.526001,437.593353 
	C814.471008,412.931122 858.993591,415.591400 876.777649,442.979340 
	C880.298584,448.401733 882.258789,454.837555 885.558960,462.187378 
	C875.424133,462.187378 867.018921,462.244507 858.617126,462.100922 
	C857.756531,462.086243 856.625427,461.044647 856.109741,460.185547 
	C845.456482,442.433868 820.818909,441.018097 808.776611,457.511627 
	C797.953979,472.334656 798.381958,499.542572 809.665344,514.005188 
	C822.014221,529.833557 845.056519,528.358337 855.212952,511.168549 
	C855.829773,510.124634 857.401489,509.040070 858.552673,509.013824 
	C866.678833,508.828552 874.811218,508.915375 883.644470,508.915375 
	C879.917847,525.593323 870.962402,537.549011 856.113525,544.571228 
	C834.745911,554.676270 814.703796,551.343201 795.822876,537.098694 
z"/>
<path fill="#030303" opacity="1.000000" stroke="none" 
	d="
M251.319427,571.692505 
	C232.311234,563.606140 213.662201,555.648804 195.222763,547.780945 
	C196.224854,541.853699 197.706955,536.342163 197.990952,530.769531 
	C198.712082,516.619934 194.546097,503.874573 185.967606,492.501129 
	C184.872482,491.049255 184.344360,488.082855 185.064789,486.510437 
	C197.193695,460.037872 209.562637,433.675232 222.118240,406.774200 
	C232.864853,410.055420 243.975830,411.192688 255.447174,407.600372 
	C274.309357,460.005707 293.103882,512.223022 311.521881,563.394165 
	C303.836151,571.428772 296.572266,579.022400 288.383087,587.583313 
	C277.231079,582.794434 264.454803,577.307983 251.319427,571.692505 
z"/>
<path fill="#050505" opacity="1.000000" stroke="none" 
	d="
M236.487579,385.756775 
	C208.067764,380.275299 203.081924,349.804199 215.230316,333.237427 
	C223.270935,322.272400 236.156937,317.723907 250.175415,321.342987 
	C261.847778,324.356415 271.580383,335.919403 272.926727,348.373108 
	C275.321442,370.523468 259.783844,386.674194 236.487579,385.756775 
z"/>
<path fill="#050505" opacity="1.000000" stroke="none" 
	d="
M311.281982,601.462097 
	C321.086304,581.292664 342.767212,575.612915 359.748627,588.436890 
	C371.115540,597.020935 374.830933,613.617493 368.544403,627.727661 
	C362.713501,640.815063 348.349731,648.306885 334.045074,645.721680 
	C320.130280,643.206909 309.430084,630.752563 309.156342,616.003662 
	C309.068878,611.291626 310.442230,606.552551 311.281982,601.462097 
z"/>
<path fill="#050505" opacity="1.000000" stroke="none" 
	d="
M118.996887,550.991577 
	C109.278664,539.640869 108.305115,527.090027 113.903030,514.320068 
	C118.955322,502.794678 128.702530,497.154694 141.319733,496.831177 
	C155.182785,496.475677 167.128174,504.946777 171.307571,517.953003 
	C175.810349,531.965515 170.947769,547.177795 159.392349,555.229004 
	C148.112427,563.088257 133.072922,562.575195 122.192459,553.935059 
	C121.153725,553.110229 120.221077,552.151733 118.996887,550.991577 
z"/>
<path fill="#000000" opacity="1.000000" stroke="none" 
	d="
M579.060669,506.546936 
	C578.962891,504.792267 579.140930,503.486694 579.318970,502.181152 
	C580.049255,502.421936 580.779602,502.662750 581.509888,502.903564 
	C580.785461,504.267731 580.060974,505.631897 579.060669,506.546936 
z"/>
</svg>